<svg xmlns="http://www.w3.org/2000/svg" aria-hidden="true" style="position:absolute;width:0;height:0;overflow:hidden"><defs><symbol id="icon-arrow-right" viewBox="0 0 32 32"><path stroke-linecap="round" stroke-linejoin="round" stroke-width="2.667" d="M6.421 15.411H24.4m-.001 0L15.41 6.422m8.989 8.989L15.41 24.4"/></symbol><symbol id="icon-arrow-left" viewBox="0 0 32 32"><path stroke-linecap="round" stroke-linejoin="round" stroke-width="2.667" d="M24.4 15.41H6.421m0 0 8.989 8.989M6.421 15.41l8.989-8.989"/></symbol><symbol id="icon-chevron" viewBox="0 0 32 32"><path stroke-linecap="round" stroke-linejoin="round" stroke-width="2.667" d="m12 24 8-8-8-8"/></symbol><symbol id="icon-close" viewBox="0 0 32 32"><path stroke-linecap="round" stroke-width="2.667" d="M26.667 26.667 5.334 5.334m21.333-.001L5.334 26.666"/></symbol><symbol id="icon-cross" viewBox="0 0 32 32"><path stroke-linecap="round" stroke-width="2.286" d="M26.666 26.667 5.333 5.334m21.333-.001L5.333 26.666"/></symbol><symbol id="icon-download" viewBox="0 0 32 32"><path stroke-linecap="round" stroke-linejoin="round" stroke-width="2.667" d="M28 20v5.333A2.67 2.67 0 0 1 25.333 28H6.666a2.67 2.67 0 0 1-2.667-2.667V20m5.335-6.667L16.001 20l6.667-6.667M16 20V4"/></symbol><symbol id="icon-faq" viewBox="0 0 32 32"><path fill="none" stroke="#4a5565" stroke-linecap="round" stroke-linejoin="round" stroke-width="2.667" d="M16 29.333c7.364 0 13.333-5.97 13.333-13.333S23.363 2.667 16 2.667 2.667 8.637 2.667 16 8.637 29.333 16 29.333" style="stroke:var(--color1, #4a5565)"/><path fill="none" stroke="#4a5565" stroke-linecap="round" stroke-linejoin="round" stroke-width="2.667" d="M12.12 12a4.003 4.003 0 0 1 6.834-1.249c.608.722.941 1.637.94 2.582 0 2.667-4 4-4 4M16 22.667h.013" style="stroke:var(--color1, #4a5565)"/></symbol><symbol id="icon-gameplay" viewBox="0 0 32 32"><path fill="none" stroke="#4a5565" stroke-linecap="round" stroke-linejoin="round" stroke-width="2.667" d="M8 14.667h5.333M10.666 12v5.333M20 16h.013M24 13.333h.013m-.92-6.666H8.906a5.33 5.33 0 0 0-5.304 4.787c-.008.069-.013.135-.023.203-.108.899-.913 7.619-.913 9.677a4.003 4.003 0 0 0 4 4c1.333 0 2-.667 2.667-1.333l1.885-1.885c.5-.5 1.178-.781 1.885-.781h5.792c.707 0 1.385.281 1.885.781l1.885 1.885c.667.667 1.333 1.333 2.667 1.333a4.003 4.003 0 0 0 4-4c0-2.06-.805-8.779-.913-9.677l-.023-.201a5.335 5.335 0 0 0-5.304-4.788z" style="stroke:var(--color1, #4a5565)"/></symbol><symbol id="icon-home" viewBox="0 0 32 32"><path fill="none" stroke="#4a5565" stroke-linecap="round" stroke-linejoin="round" stroke-width="2.667" d="M20 28V17.333a1.335 1.335 0 0 0-1.334-1.334h-5.333a1.335 1.335 0 0 0-1.334 1.334V28" style="stroke:var(--color1, #4a5565)"/><path fill="none" stroke="#4a5565" stroke-linecap="round" stroke-linejoin="round" stroke-width="2.667" d="M4 13.333a2.66 2.66 0 0 1 .946-2.037l9.333-7.999a2.664 2.664 0 0 1 3.442 0l9.333 7.999A2.67 2.67 0 0 1 28 13.333v12A2.67 2.67 0 0 1 25.333 28H6.666a2.67 2.67 0 0 1-2.667-2.667z" style="stroke:var(--color1, #4a5565)"/></symbol><symbol id="icon-lightning" viewBox="0 0 32 32"><path stroke-linecap="round" stroke-linejoin="round" stroke-width="2.667" d="M5.333 18.667a1.33 1.33 0 0 1-1.328-1.49c.03-.251.13-.488.289-.684l13.2-13.6a.665.665 0 0 1 1.117.174c.06.139.07.294.03.44l-2.56 8.027a1.34 1.34 0 0 0 .155 1.228 1.33 1.33 0 0 0 1.099.571h9.333a1.33 1.33 0 0 1 1.328 1.49c-.03.251-.13.488-.289.684l-13.2 13.6a.665.665 0 0 1-1.117-.174.67.67 0 0 1-.03-.44l2.56-8.027a1.34 1.34 0 0 0-.155-1.228 1.33 1.33 0 0 0-1.099-.572z"/></symbol><symbol id="icon-menu" viewBox="0 0 32 32"><path stroke-linecap="round" stroke-linejoin="round" stroke-width="2.667" d="M5.333 6.667h21.333M5.333 16h21.333M5.333 25.333h21.333"/></symbol><symbol id="icon-pick" viewBox="0 0 32 32"><path stroke-linecap="round" stroke-linejoin="round" stroke-width="2.667" d="M19.375 16.625 8.826 27.173a2.83 2.83 0 0 1-4-4l10.549-10.549m5.54-6.872A16.67 16.67 0 0 0 7.282 3.944a1.334 1.334 0 0 0 .159 2.336 29.3 29.3 0 0 1 8.424 4.524"/><path stroke-linecap="round" stroke-linejoin="round" stroke-width="2.667" d="M23.6 4.933a1.333 1.333 0 0 0-1.866 0l-6.133 6.133a1.333 1.333 0 0 0 0 1.866l3.467 3.467a1.333 1.333 0 0 0 1.866 0l6.133-6.133a1.333 1.333 0 0 0 0-1.866zm2.648 6.152a16.67 16.67 0 0 1 1.808 13.634 1.332 1.332 0 0 1-2.334-.158 29.3 29.3 0 0 0-4.524-8.425"/></symbol><symbol id="icon-rating" viewBox="0 0 32 32"><path fill="#f0b100" stroke="#f0b100" stroke-linecap="round" stroke-linejoin="round" stroke-width="2.667" d="M15.367 3.06a.708.708 0 0 1 1.268 0l3.08 6.239a2.83 2.83 0 0 0 2.127 1.546l6.888 1.008a.706.706 0 0 1 .392 1.206l-4.981 4.851a2.83 2.83 0 0 0-.814 2.504l1.176 6.853a.706.706 0 0 1-1.028.747l-6.157-3.237a2.83 2.83 0 0 0-2.63 0l-6.156 3.237c-.117.062-.249.09-.381.08s-.259-.056-.366-.133a.7.7 0 0 1-.281-.694l1.175-6.852a2.82 2.82 0 0 0-.815-2.505l-4.981-4.849a.71.71 0 0 1-.181-.726.7.7 0 0 1 .574-.482l6.887-1.007c.454-.066.885-.241 1.255-.511s.671-.625.874-1.036l3.079-6.239z" style="fill:var(--color2, #f0b100);stroke:var(--color2, #f0b100)"/></symbol><symbol id="icon-star" viewBox="0 0 32 32"><path stroke-linecap="round" stroke-linejoin="round" stroke-width="2.667" d="M15.367 3.06a.708.708 0 0 1 1.268 0l3.08 6.239a2.82 2.82 0 0 0 2.127 1.546l6.888 1.008a.706.706 0 0 1 .392 1.206l-4.981 4.851a2.84 2.84 0 0 0-.814 2.503l1.176 6.853a.705.705 0 0 1-.647.828.7.7 0 0 1-.381-.081l-6.157-3.237a2.83 2.83 0 0 0-2.63 0l-6.156 3.237c-.117.062-.249.09-.381.08s-.259-.056-.366-.133a.71.71 0 0 1-.281-.694l1.175-6.852a2.82 2.82 0 0 0-.815-2.505L2.883 13.06a.71.71 0 0 1-.181-.726.7.7 0 0 1 .574-.482l6.887-1.007a2.83 2.83 0 0 0 2.129-1.547l3.079-6.239z"/></symbol><symbol id="icon-town" viewBox="0 0 32 32"><path stroke-linecap="round" stroke-linejoin="round" stroke-width="2.667" d="M8 29.333v-24a2.67 2.67 0 0 1 2.667-2.667h10.667a2.67 2.67 0 0 1 2.667 2.667v24zM8 16H5.333a2.67 2.67 0 0 0-2.667 2.667v8a2.67 2.67 0 0 0 2.667 2.667H8"/><path stroke-linecap="round" stroke-linejoin="round" stroke-width="2.667" d="M24 12h2.667a2.67 2.67 0 0 1 2.667 2.667v12a2.67 2.67 0 0 1-2.667 2.667H24M13.333 8h5.333m-5.333 5.333h5.333m-5.333 5.334h5.333M13.333 24h5.333"/></symbol><symbol id="icon-trend" viewBox="0 0 32 32"><path stroke-linecap="round" stroke-linejoin="round" stroke-width="2.667" d="M29.333 9.333 18 20.666l-6.667-6.667-8.667 8.667"/><path stroke-linecap="round" stroke-linejoin="round" stroke-width="2.667" d="M21.333 9.333h8v8"/></symbol><symbol id="icon-upgrades" viewBox="0 0 32 32"><path fill="none" stroke="#4a5565" stroke-linecap="round" stroke-linejoin="round" stroke-width="2.667" d="M5.333 18.667a1.33 1.33 0 0 1-1.328-1.49c.03-.251.13-.488.289-.684l13.2-13.6a.665.665 0 0 1 1.117.174c.06.139.07.294.03.44l-2.56 8.027a1.33 1.33 0 0 0 .155 1.228 1.34 1.34 0 0 0 1.099.571h9.333a1.33 1.33 0 0 1 1.328 1.49c-.03.251-.13.488-.289.684l-13.2 13.6a.665.665 0 0 1-1.117-.174.67.67 0 0 1-.03-.44l2.56-8.027a1.34 1.34 0 0 0-.155-1.228 1.32 1.32 0 0 0-1.099-.571z" style="stroke:var(--color1, #4a5565)"/></symbol><symbol id="icon-world" viewBox="0 0 32 32"><path fill="none" stroke="#4a5565" stroke-linecap="round" stroke-linejoin="round" stroke-width="2.667" d="M16 29.333c7.364 0 13.333-5.97 13.333-13.333S23.363 2.667 16 2.667 2.667 8.637 2.667 16 8.637 29.333 16 29.333" style="stroke:var(--color1, #4a5565)"/><path fill="none" stroke="#4a5565" stroke-linecap="round" stroke-linejoin="round" stroke-width="2.667" d="M16 2.667a19.33 19.33 0 0 0 0 26.666 19.33 19.33 0 0 0 0-26.666M2.667 16h26.667" style="stroke:var(--color1, #4a5565)"/></symbol><symbol id="icon-arrow-down2" viewBox="0 0 32 32"><path fill="none" stroke="#717182" stroke-linecap="round" stroke-linejoin="round" stroke-width="2.667" d="m8 12 8 8 8-8" style="stroke:var(--color3, #717182)"/></symbol></defs></svg>